<svg version="1.1" xmlns="http://www.w3.org/2000/svg" xmlns:xlink="http://www.w3.org/1999/xlink" x="0px" y="0px" xml:space="preserve" enable-background="new 0 0 190 190" viewBox="15 0 190 180"><g><radialGradient id="SVGID_1_" cx="102.0404663" cy="41.313755" r="37.7397079" fx="78.5114517" fy="20.3117523" gradientUnits="userSpaceOnUse"><stop offset="0" style="stop-color:#FFFFFF"></stop><stop offset="0.0255132" style="stop-color:#FDF8F8"></stop><stop offset="0.2973083" style="stop-color:#EEADB4"></stop><stop offset="0.5401202" style="stop-color:#E1717E"></stop><stop offset="0.745488" style="stop-color:#D94657"></stop><stop offset="0.9052967" style="stop-color:#D32C3F"></stop><stop offset="1" style="stop-color:#D12236"></stop></radialGradient><path fill-rule="evenodd" clip-rule="evenodd" fill="url(#SVGID_1_)" stroke="#AA1F00" stroke-width="3" d=" M154.9982605,35.2635803v17.4064026l-44.9999542-25.9817524c-2-1.154747-4.5000381,0.2886276-4.5000381,2.5980511v30.0937233 c-14.4299927,2.1699829-25.5,14.6199951-25.5,29.6599731c0,3.8600464,0.7299805,7.5400391,2.0700073,10.9299927 l-17.0700073,9.8500366v-74.556427c0-3.5727024,1.9060364-6.8740082,5.0001068-8.6603203l35-20.2066498 c3.093956-1.7862411,6.9058228-1.7862411,9.9997787,0l35,20.2066498 C153.0922241,28.3895721,154.9982605,31.6908779,154.9982605,35.2635803z"></path><path fill="#D12236" stroke="#AA1F00" stroke-width="3" d="M40.9271736,76.959938l15.0739479-8.7032013v51.9619827 c-0.0000381,2.3094254,2.4995384,3.7528381,4.4995613,2.5981293l26.061924-15.0468674 c9.0942612,11.4117508,25.411293,14.7736511,38.4362946,7.2536621c3.3428955-1.9300232,6.1648712-4.4021988,8.4306488-7.2576752 l17.0653839,9.8580475l-64.5677567,37.2782059c-3.0940552,1.7863617-6.9060898,1.7863312-10.0001144-0.000061 l-34.9994774-20.2075653c-3.0939064-1.7863159-5.000103-5.0874939-5.0001488-8.6600571V85.6203232 C35.9273911,82.0476227,37.8331223,78.7462921,40.9271736,76.959938z"></path><path fill="#D12236" stroke="#AA1F00" stroke-width="3" d="M134.0728302,154.9002228l-15.0743942-8.7032013l45.0008316-25.9802322 c2.0000458-1.1546783,2.0000763-4.0414658,0.0000458-5.1961746l-26.0619202-15.0468597 c5.3357391-13.5817337,0.0887146-29.3936462-12.9362946-36.9136391c-3.3428955-1.9300232-6.8925476-3.1378365-10.4983444-3.6723137 V39.6797218l64.570076,37.2782173c3.0940399,1.7863464,4.9997864,5.087677,4.9997253,8.6603775v40.4142151 c-0.0000458,3.5725708-1.9062347,6.8737335-5.0001373,8.6600647l-34.9994812,20.2075653 C140.9789124,156.686554,137.1668701,156.6865692,134.0728302,154.9002228z"></path><linearGradient id="SVGID_00000119836251559533381810000007217859948108605595_" gradientUnits="userSpaceOnUse" x1="134.7217255" y1="114.6244202" x2="96.320816" y2="74.8863297"><stop offset="0.0811578" style="stop-color:#FFD88B"></stop><stop offset="0.3899239" style="stop-color:#FFD667"></stop><stop offset="0.7925526" style="stop-color:#FFD33E"></stop><stop offset="1" style="stop-color:#FFD22E"></stop></linearGradient><circle fill="url(#SVGID_00000119836251559533381810000007217859948108605595_)" stroke="#FF9F00" stroke-width="3.5" cx="109.9994202" cy="89.0412445" r="21"></circle></g></svg>