<svg version="1.1" xmlns="http://www.w3.org/2000/svg" width="100%" height="100%" viewBox="0 0 800 800" preserveAspectRatio="xMidYMid meet">
<path d="M0 0 C29.98287632 28.38266662 37.63391251 71.06493204 39.46484375 110.52734375 C40.31202771 154.92975 29.86598145 204.25929523 0.28125 238.5703125 C-0.30011719 239.26511719 -0.88148438 239.95992188 -1.48046875 240.67578125 C-9.81789052 249.85324551 -21.67611901 256.11718396 -33.71875 258.5703125 C-35.03875 258.5703125 -36.35875 258.5703125 -37.71875 258.5703125 C-37.32360063 257.11179369 -36.92754943 255.65351924 -36.53125 254.1953125 C-36.25925781 253.18597656 -35.98726563 252.17664063 -35.70703125 251.13671875 C-35.00172375 248.59147865 -34.27221785 246.06359208 -33.51171875 243.53515625 C-23.79117233 210.80512141 -22.35178836 174.91061391 -38.40625 143.8828125 C-46.85746156 128.35134581 -58.78064957 117.22443485 -75.71875 111.5703125 C-93.02217424 107.22355858 -110.87400028 112.8207742 -125.85644531 121.44189453 C-148.77305826 135.32765555 -164.80350975 157.6091968 -177.71875 180.5703125 C-178.05712891 181.16344238 -178.39550781 181.75657227 -178.74414062 182.36767578 C-208.06853461 234.04981757 -219.01027215 296.84557372 -220.71875 355.5703125 C-220.74211426 356.36743652 -220.76547852 357.16456055 -220.78955078 357.98583984 C-222.17370204 414.61972605 -212.37270254 471.92939392 -194.71875 525.5703125 C-194.38040131 526.60372772 -194.38040131 526.60372772 -194.03521729 527.65802002 C-175.92320978 582.95320119 -152.73773661 639.09294597 -115.71875 684.5703125 C-115.25017578 685.15312988 -114.78160156 685.73594727 -114.29882812 686.33642578 C-104.32531403 698.69721719 -93.71672552 709.72390578 -80.51953125 718.64453125 C-77.71875 720.5703125 -77.71875 720.5703125 -75.71875 722.5703125 C-132.76999776 716.17058293 -194.41700644 672.01409971 -235.1328125 633.97265625 C-237.24700441 632.00856558 -239.3916045 630.12080901 -241.59375 628.2578125 C-250.61673064 620.42654629 -259.02312328 611.69845848 -266.71875 602.5703125 C-267.56179688 601.61640625 -268.40484375 600.6625 -269.2734375 599.6796875 C-288.16365104 578.23119016 -303.83955573 554.50456846 -317.71875 529.5703125 C-318.13189453 528.83586914 -318.54503906 528.10142578 -318.97070312 527.34472656 C-341.50730026 487.03957621 -355.04945886 442.29421732 -360.71875 396.5703125 C-360.83589355 395.6534668 -360.95303711 394.73662109 -361.07373047 393.79199219 C-372.82086175 297.33634963 -344.70039279 196.68993972 -282.42016602 112.484375 C-277.06886577 105.6567691 -271.50184788 99.03548215 -265.71875 92.5703125 C-265.18701172 91.97541016 -264.65527344 91.38050781 -264.10742188 90.76757812 C-252.5193361 77.89344741 -240.1407826 65.59127078 -226.5546875 54.8203125 C-224.40784883 53.11703554 -222.29599235 51.39141688 -220.1953125 49.6328125 C-166.88571954 5.19457656 -63.78005057 -56.99883829 0 0 Z " fill="#5525AC" transform="translate(362.71875,24.4296875)"/>
<path d="M0 0 C7.18875557 0.57510045 13.62151637 2.57857541 20.4375 4.875 C21.62327637 5.27428711 22.80905273 5.67357422 24.03076172 6.08496094 C73.95241984 23.2846928 120.85879426 52.57798095 159.41015625 88.59375 C161.54656893 90.57871261 163.71442515 92.48931489 165.9375 94.375 C174.59481506 101.89128818 182.60314944 110.25255676 190 119 C190.84433594 119.95519531 191.68867187 120.91039063 192.55859375 121.89453125 C251.68342563 189.04481233 283.32387647 273.08376214 287 362 C287.03609375 362.87237305 287.0721875 363.74474609 287.109375 364.64355469 C287.28714781 369.77452252 287.21220512 374.87107802 287 380 C286.95359375 381.12245117 286.9071875 382.24490234 286.859375 383.40136719 C282.79672481 473.44908522 251.57593219 562.86358552 189.40625 629.41015625 C187.42128739 631.54656893 185.51068511 633.71442515 183.625 635.9375 C176.77654255 643.8256028 169.2153172 651.34471075 161.2421875 658.09375 C159.43131772 659.6333048 157.65363477 661.19644289 155.8828125 662.78125 C134.581492 681.7337669 110.90091013 698.1330921 86 712 C85.22817383 712.43376953 84.45634766 712.86753906 83.66113281 713.31445312 C61.34722186 725.75582345 37.86881454 735.1103659 13 741 C12.20899902 741.19062012 11.41799805 741.38124023 10.60302734 741.57763672 C-14.0261503 747.26964098 -41.07360529 746.30855798 -63 733 C-66.57427523 730.56205505 -69.80402787 727.91337009 -73 725 C-73.90492188 724.17628906 -74.80984375 723.35257813 -75.7421875 722.50390625 C-82.55872097 715.99893179 -88.0628066 709.01203152 -93 701 C-93.67804688 699.90558594 -94.35609375 698.81117188 -95.0546875 697.68359375 C-104.75569094 681.17523885 -109.91402413 661.78072782 -113 643 C-113.11569336 642.33564941 -113.23138672 641.67129883 -113.35058594 640.98681641 C-121.45061902 592.56688574 -112.46220715 533.3285866 -84.13671875 492.765625 C-74.51652786 479.73187252 -61.32260349 467.47700429 -45 464 C-41.4375 463.8125 -41.4375 463.8125 -39 464 C-40.08890231 469.1686966 -41.31437389 474.25681123 -42.80175781 479.32519531 C-52.42064617 512.23036332 -53.96518454 548.4066818 -37.16796875 579.3046875 C-28.48013523 594.48968087 -17.06767432 605.0774079 -0.48828125 610.87890625 C16.32978144 615.19664945 34.44137027 609.61550255 49.05078125 601.25390625 C67.31501746 589.61801537 81.32921441 574.09291807 93 556 C93.35626465 555.44828125 93.7125293 554.8965625 94.07958984 554.328125 C121.05400703 512.11782122 134.75622658 462.3237218 141 413 C141.15098145 411.82985352 141.30196289 410.65970703 141.45751953 409.45410156 C148.55970967 351.94704745 143.79218867 293.14526422 130 237 C129.71817871 235.84419434 129.43635742 234.68838867 129.14599609 233.49755859 C118.97527788 192.32608691 104.43363569 152.17875535 86 114 C85.52626953 113.00484375 85.05253906 112.0096875 84.56445312 110.984375 C68.69174346 77.71482716 49.24981002 46.92018206 24 20 C23.43023438 19.36449219 22.86046875 18.72898437 22.2734375 18.07421875 C17.26272884 12.69091893 11.18776096 8.61467551 5.23046875 4.35546875 C2 2 2 2 0 0 Z " fill="#5525AC" transform="translate(502,0)"/>
<path d="M0 0 C0.33 0 0.66 0 1 0 C1.87119265 74.19015402 1.87119265 74.19015402 -3 111 C-3.1654834 112.28261719 -3.3309668 113.56523437 -3.50146484 114.88671875 C-4.48344598 122.29411977 -5.65932659 129.64958034 -7 137 C-7.18143555 138.01545898 -7.36287109 139.03091797 -7.54980469 140.07714844 C-16.31455331 188.48692184 -32.03888974 238.6613107 -61 279 C-61.65484375 279.92683594 -62.3096875 280.85367187 -62.984375 281.80859375 C-70.64011623 292.50586008 -78.94581154 302.46989378 -88 312 C-88.50692383 312.53560547 -89.01384766 313.07121094 -89.53613281 313.62304688 C-118.86142713 344.3935678 -157.25360081 364.97682876 -198.77734375 373.52246094 C-201.18823431 374.04044226 -203.57480802 374.63547714 -205.96875 375.2265625 C-217.96904242 377.96043929 -217.96904242 377.96043929 -222.8828125 375.63671875 C-225.3661936 373.27015175 -227.12520496 370.87186263 -229 368 C-229.74121094 367.01773437 -230.48242188 366.03546875 -231.24609375 365.0234375 C-246.04406945 344.91016868 -253.9728436 321.5085935 -258 297 C-258.11569336 296.33564941 -258.23138672 295.67129883 -258.35058594 294.98681641 C-266.45061902 246.56688574 -257.46220715 187.3285866 -229.13671875 146.765625 C-219.51652786 133.73187252 -206.32260349 121.47700429 -190 118 C-186.4375 117.8125 -186.4375 117.8125 -184 118 C-185.08890231 123.1686966 -186.31437389 128.25681123 -187.80175781 133.32519531 C-197.42064617 166.23036332 -198.96518454 202.4066818 -182.16796875 233.3046875 C-173.48013523 248.48968087 -162.06767432 259.0774079 -145.48828125 264.87890625 C-128.67021856 269.19664945 -110.55862973 263.61550255 -95.94921875 255.25390625 C-77.68498254 243.61801537 -63.67078559 228.09291807 -52 210 C-51.64373535 209.44828125 -51.2874707 208.8965625 -50.92041016 208.328125 C-11.40994208 146.50106684 -1.2235268 71.91768876 0 0 Z " fill="#865CE0" transform="translate(647,346)"/>
<path d="M0 0 C0.69867188 0.74121094 1.39734375 1.48242188 2.1171875 2.24609375 C24.55303974 30.21612287 32.82621846 65.71319248 34 101 C34.061875 102.70542969 34.061875 102.70542969 34.125 104.4453125 C34.92417015 149.09894475 24.79238456 198.44815615 -5 233 C-5.58136719 233.69480469 -6.16273438 234.38960937 -6.76171875 235.10546875 C-15.09914052 244.28293301 -26.95736901 250.54687146 -39 253 C-40.32 253 -41.64 253 -43 253 C-42.60485063 251.54148119 -42.20879943 250.08320674 -41.8125 248.625 C-41.54050781 247.61566406 -41.26851562 246.60632813 -40.98828125 245.56640625 C-40.28297375 243.02116615 -39.55346785 240.49327958 -38.79296875 237.96484375 C-29.07242233 205.23480891 -27.63303836 169.34030141 -43.6875 138.3125 C-52.13871156 122.78103331 -64.06189957 111.65412235 -81 106 C-98.30342424 101.65324608 -116.15525028 107.2504617 -131.13769531 115.87158203 C-154.05430826 129.75734305 -170.08475975 152.0388843 -183 175 C-183.33837891 175.59312988 -183.67675781 176.18625977 -184.02539062 176.79736328 C-213.50129206 228.74652609 -223.73179045 291.0862414 -226 350 C-226.33 350 -226.66 350 -227 350 C-228.16698179 278.4969313 -218.71418955 204.29501105 -188 139 C-187.55430664 138.04963867 -187.10861328 137.09927734 -186.64941406 136.12011719 C-176.81458028 115.36369036 -165.31684662 95.97836767 -151 78 C-150.58137695 77.46568359 -150.16275391 76.93136719 -149.73144531 76.38085938 C-137.24849055 60.54055764 -122.49335107 45.6431536 -106 34 C-105.34950684 33.53223145 -104.69901367 33.06446289 -104.02880859 32.58251953 C-86.21854607 19.86568264 -66.88989248 9.60585727 -46 3 C-44.89760986 2.65098633 -44.89760986 2.65098633 -43.77294922 2.29492188 C-38.55691991 0.68008061 -33.30252827 -0.70133447 -28 -2 C-26.65494385 -2.34417969 -26.65494385 -2.34417969 -25.28271484 -2.6953125 C-22.46748377 -3.40166722 -19.64435479 -4.05140891 -16.8125 -4.6875 C-15.93932129 -4.90946045 -15.06614258 -5.1314209 -14.16650391 -5.36010742 C-7.35468257 -6.78247902 -4.50964561 -5.13020432 0 0 Z " fill="#865CE0" transform="translate(368,30)"/>
</svg>
